<svg height="800" viewBox="0 0 461.432 461.432" width="800" xmlns="http://www.w3.org/2000/svg"><path d="m125.896 398.928c0 33.683-27.308 60.999-61.022 60.999-33.684 0-61.006-27.316-61.006-60.999 0-33.729 27.322-61.038 61.006-61.038 33.714 0 61.022 27.308 61.022 61.038z"/><path d="m0 229.636c0 8.441 6.606 15.379 15.036 15.809 60.318 3.076 100.885 25.031 138.248 62.582 36.716 36.864 60.071 89.759 64.082 137.769.686 8.202 7.539 14.524 15.77 14.524h56.701c4.344 0 8.498-1.784 11.488-4.935 2.992-3.15 4.555-7.391 4.333-11.729-8.074-158.152-130.669-278.332-289.013-286.23-4.334-.217-8.564 1.355-11.709 4.344-3.144 2.989-4.936 7.138-4.936 11.477z"/><path d="m0 73.411c0 8.51 6.713 15.482 15.216 15.819 194.21 7.683 350.315 161.798 358.098 355.879.34 8.491 7.32 15.208 15.818 15.208h56.457c4.297 0 8.408-1.744 11.393-4.834s4.585-7.258 4.441-11.552c-8.242-244.519-200.399-434.661-445.043-442.81-4.291-.143-8.455 1.462-11.542 4.447-3.087 2.983-4.838 7.093-4.838 11.386z"/></svg>